# xmcd CD database file
#
# Track frame offsets:
#	150
#	13000
#	36882
#	53815
#	74427
#	98445
#	115147
#	133115
#	151942
#	169630
#	178192
#	195215
#	217502
#
# Disc length: 3311 seconds
#
# Revision: 4
# Processed by: cddbd v1.5.1PL0 Copyright (c) Steve Scherf et al.
# Submitted via: CDex 1.50
#
DISCID=a00ced0d
DTITLE=yuzu - ONE
DYEAR=1900
DGENRE=
TTITLE0=wadati
TTITLE1=ONE
TTITLE2=syumi no haba
TTITLE3=sakuragi chou
TTITLE4=hakuchou
TTITLE5=uso ppati
TTITLE6=tumiki game
TTITLE7=inoti haterumade
TTITLE8=hokousya yuusen
TTITLE9=natumaturi
TTITLE10=keikoutou no saki
TTITLE11=yume no tizu
TTITLE12=eikou no kakehashi
EXTD=
EXTT0=
EXTT1=
EXTT2=
EXTT3=
EXTT4=
EXTT5=
EXTT6=
EXTT7=
EXTT8=
EXTT9=
EXTT10=
EXTT11=
EXTT12=
PLAYORDER=
